<svg aria-hidden="true" style="position: absolute; width: 0; height: 0; overflow: hidden;" version="1.1" xmlns="http://www.w3.org/2000/svg" xmlns:xlink="http://www.w3.org/1999/xlink">
<defs>
<symbol id="digital" viewBox="0 0 34 32">
<title>IMAGE</title>
<path fill="#95e1d3" style="fill: var(--color1, #95e1d3)" d="M30.588 31.059c0 0-27.294 0-27.294 0-0.78 0-1.412-0.632-1.412-1.412 0 0 0-27.294 0-27.294 0-0.78 0.632-1.411 1.412-1.411 0 0 27.294 0 27.294 0 0.78 0 1.412 0.632 1.412 1.411 0 0 0 27.294 0 27.294 0 0.78-0.632 1.412-1.412 1.412zM29.177 3.765c0 0-24.471 0-24.471 0s0 24.47 0 24.47c0 0 24.471 0 24.471 0s0-24.47 0-24.47zM8 5.176c0 0 5.176 0 5.176 0s0 0 0 0c0.78 0 1.412 0.632 1.412 1.412s-0.632 1.411-1.412 1.411c0 0 0 0 0 0s-4.235 0-4.235 0c0 0 0 4.235 0 4.235s0 0 0 0c0 0.78-0.632 1.412-1.412 1.412s-1.412-0.632-1.412-1.412c0 0 0 0 0 0s0-5.176 0-5.176c0 0 0 0 0 0s0-1.883 0-1.883c0 0 1.882 0 1.882 0s0 0 0 0zM6.118 19.764c0 0 0 0 0 0 0-0.78 0.632-1.412 1.412-1.412s1.412 0.632 1.412 1.412c0 0 0 0 0 0s0 4.235 0 4.235c0 0 4.235 0 4.235 0s0 0.001 0 0.001c0.78 0 1.412 0.632 1.412 1.411s-0.632 1.412-1.412 1.412c0 0-0 0-0 0s-5.176 0-5.176 0c0 0 0 0 0 0s-1.882 0-1.882 0c0 0 0-1.883 0-1.883s0 0 0 0 0-5.176 0-5.176zM20.706 5.176c0 0 0 0 0 0s5.176 0 5.176 0c0 0 0 0 0 0s1.882 0 1.882 0c0 0 0 1.883 0 1.883s0 0 0 0 0 5.176 0 5.176c0 0 0 0 0 0 0 0.78-0.632 1.412-1.412 1.412s-1.412-0.632-1.412-1.412c0 0 0 0 0 0s0-4.235 0-4.235c0 0-4.235 0-4.235 0s0 0 0 0c-0.78 0-1.412-0.632-1.412-1.411s0.632-1.412 1.412-1.412zM20.706 24c0 0 0-0.001 0-0.001s4.235 0 4.235 0c0 0 0-4.235 0-4.235s0 0 0 0c0-0.78 0.632-1.412 1.412-1.412s1.412 0.632 1.412 1.412c0 0 0 0 0 0s0 5.176 0 5.176c0 0 0 0 0 0s0 1.883 0 1.883c0 0-1.882 0-1.882 0s0 0 0 0-5.176 0-5.176 0c0 0-0 0-0 0-0.78 0-1.412-0.632-1.412-1.412s0.632-1.411 1.412-1.411z"></path>
</symbol>
<symbol id="line-graph" viewBox="0 0 32 32">
<title>LINE-GRAPH</title>
<path fill="#95e1d3" style="fill: var(--color1, #95e1d3)" d="M28.8 31.086c0 0-26.514 0-26.514 0-0.757 0-1.371-0.614-1.371-1.372 0 0 0-26.514 0-26.514 0-0.757 0.614-1.371 1.371-1.371 0 0 26.514 0 26.514 0 0.757 0 1.372 0.614 1.372 1.371 0 0 0 26.514 0 26.514 0 0.757-0.614 1.372-1.372 1.372zM27.429 4.571c0 0-23.771 0-23.771 0s0 23.772 0 23.772c0 0 23.771 0 23.771 0s0-23.772 0-23.772zM5.683 16.675c0 0-0.001-0.001-0.001-0.001s3.657-2.286 3.657-2.286c0 0 0.001 0.001 0.001 0.001 0.209-0.129 0.454-0.203 0.717-0.203 0.285 0 0.549 0.087 0.768 0.235 0 0 0.005-0.008 0.005-0.008s6.062 4.041 6.062 4.041c0 0 6.984-4.929 6.984-4.929 0.227-0.166 0.507-0.264 0.809-0.264 0.757 0 1.371 0.614 1.371 1.371 0 0.457-0.224 0.862-0.568 1.111 0 0 0 0.001 0 0.001s-7.771 5.486-7.771 5.486c0 0-0-0.001-0-0.001-0.226 0.163-0.503 0.26-0.803 0.26-0.293 0-0.565-0.092-0.788-0.249 0 0-6.086-4.057-6.086-4.057s-2.867 1.792-2.867 1.792c-0.22 0.151-0.487 0.24-0.774 0.24-0.757 0-1.371-0.614-1.371-1.372 0-0.494 0.262-0.928 0.654-1.169z"></path>
</symbol>
<symbol id="alarm" viewBox="0 0 32 32">
<title>ALARM</title>
<path fill="#95e1d3" style="fill: var(--color1, #95e1d3)" d="M29.873 10.826c-1.49-3.479-4.279-6.268-7.757-7.758 0.941-0.74 2.125-1.186 3.415-1.186 3.053 0 5.529 2.475 5.529 5.529 0 1.29-0.445 2.474-1.186 3.415zM29.647 16.941c0 3.626-1.423 6.911-3.729 9.355 0 0 1.909 1.909 1.909 1.909 0.253 0.253 0.409 0.602 0.409 0.987 0 0.771-0.625 1.396-1.396 1.396-0.386 0-0.734-0.156-0.987-0.409 0 0-2.050-2.050-2.050-2.050-2.212 1.546-4.899 2.459-7.802 2.459-2.898 0-5.579-0.909-7.789-2.45 0 0-2.036 2.036-2.036 2.036-0.256 0.255-0.608 0.414-0.998 0.414-0.78 0-1.412-0.632-1.412-1.412 0-0.389 0.158-0.743 0.413-0.998 0 0 1.894-1.893 1.894-1.893-2.3-2.443-3.719-5.724-3.719-9.344 0-7.537 6.11-13.647 13.647-13.647s13.647 6.11 13.647 13.647zM16 6.117c-5.978 0-10.824 4.846-10.824 10.824s4.846 10.824 10.824 10.824c5.978 0 10.823-4.846 10.823-10.824s-4.846-10.824-10.823-10.824zM21.647 18.353c0 0-5.647 0-5.647 0-0.78 0-1.412-0.632-1.412-1.412 0 0 0-7.53 0-7.53 0-0.779 0.632-1.411 1.412-1.411s1.412 0.632 1.412 1.411c0 0 0 6.118 0 6.118s4.235 0 4.235 0c0.78 0 1.412 0.632 1.412 1.412s-0.632 1.412-1.412 1.412zM2.153 11.017c-0.757-0.96-1.212-2.17-1.212-3.488 0-3.119 2.528-5.647 5.647-5.647 1.318 0 2.527 0.455 3.488 1.211-3.553 1.522-6.401 4.371-7.923 7.923z"></path>
</symbol>
<symbol id="book" viewBox="0 0 33 32">
<title>BOOK-2</title>
<path fill="#95e1d3" style="fill: var(--color1, #95e1d3)" d="M31.12 25.308c0 0-13.62 5.636-13.62 5.636-0.171 0.074-0.36 0.115-0.559 0.115s-0.387-0.041-0.559-0.115c0 0-13.62-5.636-13.62-5.636-0.516-0.21-0.88-0.716-0.88-1.308 0 0 0-21.647 0-21.647 0-0.78 0.632-1.411 1.412-1.411 0.191 0 0.373 0.038 0.54 0.107 0 0 0 0 0 0s0.002 0.001 0.002 0.001c0.004 0.001 0.008 0.003 0.013 0.005 0 0 13.092 5.417 13.092 5.417s13.092-5.417 13.092-5.417c0.004-0.002 0.008-0.004 0.013-0.005 0 0 0.002-0.001 0.002-0.001s0 0 0 0c0.166-0.069 0.348-0.107 0.54-0.107 0.78 0 1.412 0.632 1.412 1.411 0 0 0 21.647 0 21.647 0 0.591-0.364 1.098-0.88 1.308zM15.529 8.944c0 0-10.824-4.479-10.824-4.479s0 18.591 0 18.591c0 0 10.824 4.479 10.824 4.479s0-18.591 0-18.591zM29.176 4.465c0 0-10.824 4.479-10.824 4.479s0 18.591 0 18.591c0 0 10.824-4.479 10.824-4.479s0-18.591 0-18.591zM20.592 10.95c0 0 5.177-2.353 5.177-2.353s0 0 0 0c0.178-0.081 0.376-0.127 0.584-0.127 0.78 0 1.412 0.632 1.412 1.412 0 0.571-0.34 1.063-0.828 1.285 0 0 0 0 0 0s-5.177 2.353-5.177 2.353c0 0 0 0 0 0-0.178 0.081-0.376 0.127-0.584 0.127-0.78 0-1.412-0.632-1.412-1.412 0-0.571 0.34-1.063 0.828-1.285zM20.592 16.127c0 0 0 0 0 0s5.177-2.353 5.177-2.353c0 0 0 0 0 0 0.178-0.081 0.376-0.126 0.584-0.126 0.78 0 1.412 0.632 1.412 1.411 0 0.572-0.34 1.063-0.828 1.285 0 0-5.177 2.353-5.177 2.353s0-0.001 0-0.001c-0.178 0.081-0.376 0.127-0.584 0.127-0.78 0-1.412-0.632-1.412-1.411 0-0.572 0.34-1.063 0.828-1.285zM20.592 21.303c0 0 0 0 0 0s5.177-2.353 5.177-2.353c0 0 0 0 0 0 0.178-0.081 0.376-0.127 0.584-0.127 0.78 0 1.412 0.632 1.412 1.412 0 0.571-0.34 1.063-0.828 1.285 0 0 0 0 0 0s-5.177 2.353-5.177 2.353c0 0 0 0 0 0-0.178 0.081-0.376 0.127-0.584 0.127-0.78 0-1.412-0.632-1.412-1.412 0-0.571 0.34-1.063 0.828-1.285zM7.529 8.47c0.208 0 0.406 0.045 0.584 0.127 0 0 0 0 0 0s5.176 2.353 5.176 2.353c0 0 0 0 0 0 0.488 0.222 0.828 0.714 0.828 1.285 0 0.78-0.632 1.412-1.412 1.412-0.208 0-0.406-0.045-0.584-0.127 0 0 0 0 0 0s-5.176-2.353-5.176-2.353c0 0 0 0 0 0-0.488-0.222-0.828-0.714-0.828-1.285 0-0.78 0.632-1.412 1.412-1.412zM7.529 13.647c0.208 0 0.406 0.046 0.584 0.126 0 0 0 0 0 0s5.176 2.353 5.176 2.353c0 0 0 0 0 0 0.488 0.222 0.828 0.714 0.828 1.285 0 0.779-0.632 1.411-1.412 1.411-0.208 0-0.406-0.046-0.584-0.127 0 0 0 0.001 0 0.001s-5.176-2.353-5.176-2.353c0 0 0 0 0 0-0.488-0.222-0.828-0.713-0.828-1.285 0-0.78 0.632-1.411 1.412-1.411zM7.529 18.823c0.208 0 0.406 0.046 0.584 0.127 0 0 0 0 0 0s5.176 2.353 5.176 2.353c0 0 0 0 0 0 0.488 0.222 0.828 0.714 0.828 1.285 0 0.78-0.632 1.412-1.412 1.412-0.208 0-0.406-0.046-0.584-0.127 0 0 0 0 0 0s-5.176-2.353-5.176-2.353c0 0 0 0 0 0-0.488-0.222-0.828-0.714-0.828-1.285 0-0.78 0.632-1.412 1.412-1.412z"></path>
</symbol>
<symbol id="computer" viewBox="0 0 35 32">
<title>COMPUTER-_-OK</title>
<path fill="#95e1d3" style="fill: var(--color1, #95e1d3)" d="M32 25.806c0 0-7.742 0-7.742 0s-2.065 0-2.065 0c0 0 0 2.58 0 2.58s2.065 2.065 2.065 2.065c0 0 0 0.516 0 0.516s-13.419 0-13.419 0c0 0 0-0.516 0-0.516s2.065-2.065 2.065-2.065c0 0 0-2.58 0-2.58s-2.064 0-2.064 0c0 0-7.742 0-7.742 0-0.855 0-1.548-0.693-1.548-1.549 0 0 0-20.645 0-20.645 0-0.855 0.693-1.548 1.548-1.548 0 0 28.903 0 28.903 0 0.855 0 1.548 0.693 1.548 1.548 0 0 0 20.645 0 20.645 0 0.855-0.693 1.549-1.548 1.549zM31.484 4.129c0 0-27.871 0-27.871 0s0 17.548 0 17.548c0 0 27.871 0 27.871 0s0-17.548 0-17.548zM14.452 11.355c0.428 0 0.815 0.174 1.095 0.453 0 0 0 0 0 0s0.97 0.97 0.97 0.97c0 0 3.034-3.034 3.034-3.034s0 0 0 0c0.28-0.28 0.667-0.453 1.095-0.453 0.855 0 1.548 0.693 1.548 1.548 0 0.428-0.173 0.815-0.453 1.095 0 0 0 0 0 0s-4.129 4.129-4.129 4.129c0 0 0 0 0 0-0.28 0.28-0.667 0.454-1.095 0.454s-0.815-0.174-1.095-0.454c0 0 0 0 0 0s-2.064-2.065-2.064-2.065c0 0 0 0 0 0-0.28-0.28-0.454-0.668-0.454-1.095 0-0.855 0.693-1.549 1.548-1.549z"></path>
</symbol>
<symbol id="home" viewBox="0 0 34 32">
<title>HOME</title>
<path fill="#95e1d3" style="fill: var(--color1, #95e1d3)" d="M32.97 16.969c0 0.803-0.651 1.454-1.455 1.454-0.383 0-0.729-0.151-0.989-0.393 0 0-0.004 0.003-0.004 0.003s-13.031-13.031-13.031-13.031c0 0 0-0.001 0-0.001s-0.037-0.035-0.037-0.035c0 0 0-0.001 0-0.001s-13.039 13.039-13.039 13.039c0 0-0.001-0.001-0.001-0.001-0.263 0.259-0.623 0.418-1.021 0.418-0.803 0-1.455-0.651-1.455-1.454 0-0.412 0.172-0.784 0.447-1.048 0 0 14.020-14.020 14.020-14.020 0.265-0.275 0.636-0.447 1.048-0.447 0 0 0 0 0 0s0 0 0 0 0 0 0.001 0c0.026 0 0.051 0.001 0.077 0.002 0.004 0 0.008 0.001 0.012 0.001 0.022 0.002 0.044 0.003 0.065 0.006 0.001 0 0.003 0 0.004 0.001 0.356 0.039 0.673 0.206 0.905 0.454 0 0 0.001-0.001 0.001-0.001s5.723 5.723 5.723 5.723c0 0 0-1.337 0-1.337 0-0.803 0.651-1.455 1.455-1.455s1.455 0.651 1.455 1.455c0 0 0 4.246 0 4.246s5.428 5.428 5.428 5.428c0 0-0.003 0.004-0.003 0.004 0.242 0.26 0.393 0.606 0.393 0.989zM30.061 19.394c0 0 0 4.364 0 4.364s0 1.939 0 1.939c0 0 0 3.879 0 3.879 0 0.803-0.651 1.455-1.455 1.455 0 0-2.909 0-2.909 0s0-11.637 0-11.637c0 0-5.818 0-5.818 0s0 11.637 0 11.637c0 0-13.576 0-13.576 0-0.803 0-1.455-0.651-1.455-1.455 0 0 0-3.879 0-3.879s0-1.939 0-1.939c0 0 0-4.364 0-4.364s12.606-12.606 12.606-12.606c0 0 12.606 12.606 12.606 12.606zM15.030 19.394c0 0-5.818 0-5.818 0s0 5.819 0 5.819c0 0 5.818 0 5.818 0s0-5.819 0-5.819z"></path>
</symbol>
</defs>
</svg>
